#Comment line ignore any data following # character 
#Hierarchical Translation and Rotation (.htr) file 
[Header]	
#Header keywords are followed by a single value 
FileType HTR		#Single word string
DataType HTRS		#Translation followed by rotation and scale data
FileVersion 1		#integer
NumSegments 84		#integer
NumFrames 2		#integer
DataFrameRate 30		#integer, data frame rate in this file
EulerRotationOrder ZYX
CalibrationUnits mm
RotationUnits Degrees
GlobalAxisofGravity Y
BoneLengthAxis Y
ScaleFactor 1.00
[SegmentNames&Hierarchy]
#CHILD	PARENT
MASTER GLOBAL
root MASTER
chest root
L_mid_tent01 root
R_mid_tent01 root
spine01 root
Bip01_Neck chest
L_humerus chest
R_humerus chest
weapon_bone chest
Bip01_Head Bip01_Neck
eye_left_bone Bip01_Head
eye_right_bone Bip01_Head
L_forearm L_humerus
L_front_hand L_forearm
L_weapon_bone L_forearm
L_front_hand01_01 L_front_hand
L_front_hand02_01 L_front_hand
L_front_hand03_01 L_front_hand
L_front_hand01_02 L_front_hand01_01
L_front_hand02_02 L_front_hand02_01
L_front_hand03_02 L_front_hand03_01
R_forearm R_humerus
R_front_hand R_forearm
R_weapon_bone R_forearm
R_front_hand01_01 R_front_hand
R_front_hand02_01 R_front_hand
R_front_hand03_01 R_front_hand
R_front_hand01_02 R_front_hand01_01
R_front_hand02_02 R_front_hand02_01
R_front_hand03_02 R_front_hand03_01
null_rope01_connect L_mid_tent01
Rope1_Seg01 null_rope01_connect
Rope1_Seg02 Rope1_Seg01
Rope1_Seg03 Rope1_Seg02
Rope1_Seg04 Rope1_Seg03
Rope1_Seg05 Rope1_Seg04
Rope1_Seg06 Rope1_Seg05
Rope1_Seg07 Rope1_Seg06
Rope1_Seg09 Rope1_Seg07
L_mid_hand01 Rope1_Seg09
L_mid_hand02 Rope1_Seg09
L_mid_hand03 Rope1_Seg09
null_rope02_connect R_mid_tent01
Rope2_Seg01 null_rope02_connect
Rope2_Seg02 Rope2_Seg01
Rope2_Seg03 Rope2_Seg02
Rope2_Seg04 Rope2_Seg03
Rope2_Seg05 Rope2_Seg04
Rope2_Seg06 Rope2_Seg05
Rope2_Seg07 Rope2_Seg06
Rope2_Seg09 Rope2_Seg07
R_mid_hand01 Rope2_Seg09
R_mid_hand02 Rope2_Seg09
R_mid_hand03 Rope2_Seg09
spine02 spine01
spine03 spine02
pelvis spine03
null_rope03_connect pelvis
null_rope04_connect pelvis
Rope3_Seg01 null_rope03_connect
Rope3_Seg02 Rope3_Seg01
Rope3_Seg03 Rope3_Seg02
Rope3_Seg04 Rope3_Seg03
Rope3_Seg05 Rope3_Seg04
Rope3_Seg06 Rope3_Seg05
Rope3_Seg07 Rope3_Seg06
Rope3_Seg08 Rope3_Seg07
Rope3_Seg09 Rope3_Seg08
R_rear_hand01 Rope3_Seg09
R_rear_hand02 Rope3_Seg09
R_rear_hand03 Rope3_Seg09
Rope4_Seg01 null_rope04_connect
Rope4_Seg02 Rope4_Seg01
Rope4_Seg03 Rope4_Seg02
Rope4_Seg04 Rope4_Seg03
Rope4_Seg05 Rope4_Seg04
Rope4_Seg06 Rope4_Seg05
Rope4_Seg07 Rope4_Seg06
Rope4_Seg08 Rope4_Seg07
Rope4_Seg09 Rope4_Seg08
L_rear_hand01 Rope4_Seg09
L_rear_hand02 Rope4_Seg09
L_rear_hand03 Rope4_Seg09
[BasePosition]
#SegmentName Tx, Ty, Tz, Rx, Ry, Rz, BoneLength
MASTER 0.000000 0.000000 0.000000 -90.000000 0.000000 0.000000 10.000000 
root 0.000000 0.000000 0.000000 0.000000 0.000000 0.000000 10.000000 
chest 0.000000 0.000000 0.000000 0.000000 0.000000 0.000000 10.000000 
L_mid_tent01 0.000000 0.000000 0.000000 0.000000 0.000000 0.000000 10.000000 
R_mid_tent01 0.000000 0.000000 0.000000 0.000000 0.000000 0.000000 10.000000 
spine01 0.000000 0.000000 0.000000 0.000000 0.000000 0.000000 10.000000 
Bip01_Neck 0.000000 0.000000 0.000000 0.000000 0.000000 0.000000 10.000000 
L_humerus 0.000000 0.000000 0.000000 0.000000 0.000000 0.000000 10.000000 
R_humerus 0.000000 0.000000 0.000000 0.000000 0.000000 0.000000 10.000000 
weapon_bone 0.000000 0.000000 0.000000 0.000000 0.000000 0.000000 10.000000 
Bip01_Head 0.000000 0.000000 0.000000 0.000000 0.000000 0.000000 10.000000 
eye_left_bone 0.000000 0.000000 0.000000 0.000000 0.000000 0.000000 10.000000 
eye_right_bone 0.000000 0.000000 0.000000 0.000000 0.000000 0.000000 10.000000 
L_forearm 0.000000 0.000000 0.000000 0.000000 0.000000 0.000000 10.000000 
L_front_hand 0.000000 0.000000 0.000000 0.000000 0.000000 0.000000 10.000000 
L_weapon_bone 0.000000 0.000000 0.000000 0.000000 0.000000 0.000000 10.000000 
L_front_hand01_01 0.000000 0.000000 0.000000 0.000000 0.000000 0.000000 10.000000 
L_front_hand02_01 0.000000 0.000000 0.000000 0.000000 0.000000 0.000000 10.000000 
L_front_hand03_01 0.000000 0.000000 0.000000 0.000000 0.000000 0.000000 10.000000 
L_front_hand01_02 0.000000 0.000000 0.000000 0.000000 0.000000 0.000000 10.000000 
L_front_hand02_02 0.000000 0.000000 0.000000 0.000000 0.000000 0.000000 10.000000 
L_front_hand03_02 0.000000 0.000000 0.000000 0.000000 0.000000 0.000000 10.000000 
R_forearm 0.000000 0.000000 0.000000 0.000000 0.000000 0.000000 10.000000 
R_front_hand 0.000000 0.000000 0.000000 0.000000 0.000000 0.000000 10.000000 
R_weapon_bone 0.000000 0.000000 0.000000 0.000000 0.000000 0.000000 10.000000 
R_front_hand01_01 0.000000 0.000000 0.000000 0.000000 0.000000 0.000000 10.000000 
R_front_hand02_01 0.000000 0.000000 0.000000 0.000000 0.000000 0.000000 10.000000 
R_front_hand03_01 0.000000 0.000000 0.000000 0.000000 0.000000 0.000000 10.000000 
R_front_hand01_02 0.000000 0.000000 0.000000 0.000000 0.000000 0.000000 10.000000 
R_front_hand02_02 0.000000 0.000000 0.000000 0.000000 0.000000 0.000000 10.000000 
R_front_hand03_02 0.000000 0.000000 0.000000 0.000000 0.000000 0.000000 10.000000 
null_rope01_connect 0.000000 0.000000 0.000000 0.000000 0.000000 0.000000 10.000000 
Rope1_Seg01 0.000000 0.000000 0.000000 0.000000 0.000000 0.000000 10.000000 
Rope1_Seg02 0.000000 0.000000 0.000000 0.000000 0.000000 0.000000 10.000000 
Rope1_Seg03 0.000000 0.000000 0.000000 0.000000 0.000000 0.000000 10.000000 
Rope1_Seg04 0.000000 0.000000 0.000000 0.000000 0.000000 0.000000 10.000000 
Rope1_Seg05 0.000000 0.000000 0.000000 0.000000 0.000000 0.000000 10.000000 
Rope1_Seg06 0.000000 0.000000 0.000000 0.000000 0.000000 0.000000 10.000000 
Rope1_Seg07 0.000000 0.000000 0.000000 0.000000 0.000000 0.000000 10.000000 
Rope1_Seg09 0.000000 0.000000 0.000000 0.000000 0.000000 0.000000 10.000000 
L_mid_hand01 0.000000 0.000000 0.000000 0.000000 0.000000 0.000000 10.000000 
L_mid_hand02 0.000000 0.000000 0.000000 0.000000 0.000000 0.000000 10.000000 
L_mid_hand03 0.000000 0.000000 0.000000 0.000000 0.000000 0.000000 10.000000 
null_rope02_connect 0.000000 0.000000 0.000000 0.000000 0.000000 0.000000 10.000000 
Rope2_Seg01 0.000000 0.000000 0.000000 0.000000 0.000000 0.000000 10.000000 
Rope2_Seg02 0.000000 0.000000 0.000000 0.000000 0.000000 0.000000 10.000000 
Rope2_Seg03 0.000000 0.000000 0.000000 0.000000 0.000000 0.000000 10.000000 
Rope2_Seg04 0.000000 0.000000 0.000000 0.000000 0.000000 0.000000 10.000000 
Rope2_Seg05 0.000000 0.000000 0.000000 0.000000 0.000000 0.000000 10.000000 
Rope2_Seg06 0.000000 0.000000 0.000000 0.000000 0.000000 0.000000 10.000000 
Rope2_Seg07 0.000000 0.000000 0.000000 0.000000 0.000000 0.000000 10.000000 
Rope2_Seg09 0.000000 0.000000 0.000000 0.000000 0.000000 0.000000 10.000000 
R_mid_hand01 0.000000 0.000000 0.000000 0.000000 0.000000 0.000000 10.000000 
R_mid_hand02 0.000000 0.000000 0.000000 0.000000 0.000000 0.000000 10.000000 
R_mid_hand03 0.000000 0.000000 0.000000 0.000000 0.000000 0.000000 10.000000 
spine02 0.000000 0.000000 0.000000 0.000000 0.000000 0.000000 10.000000 
spine03 0.000000 0.000000 0.000000 0.000000 0.000000 0.000000 10.000000 
pelvis 0.000000 0.000000 0.000000 0.000000 0.000000 0.000000 10.000000 
null_rope03_connect 0.000000 0.000000 0.000000 0.000000 0.000000 0.000000 10.000000 
null_rope04_connect 0.000000 0.000000 0.000000 0.000000 0.000000 0.000000 10.000000 
Rope3_Seg01 0.000000 0.000000 0.000000 0.000000 0.000000 0.000000 10.000000 
Rope3_Seg02 0.000000 0.000000 0.000000 0.000000 0.000000 0.000000 10.000000 
Rope3_Seg03 0.000000 0.000000 0.000000 0.000000 0.000000 0.000000 10.000000 
Rope3_Seg04 0.000000 0.000000 0.000000 0.000000 0.000000 0.000000 10.000000 
Rope3_Seg05 0.000000 0.000000 0.000000 0.000000 0.000000 0.000000 10.000000 
Rope3_Seg06 0.000000 0.000000 0.000000 0.000000 0.000000 0.000000 10.000000 
Rope3_Seg07 0.000000 0.000000 0.000000 0.000000 0.000000 0.000000 10.000000 
Rope3_Seg08 0.000000 0.000000 0.000000 0.000000 0.000000 0.000000 10.000000 
Rope3_Seg09 0.000000 0.000000 0.000000 0.000000 0.000000 0.000000 10.000000 
R_rear_hand01 0.000000 0.000000 0.000000 0.000000 0.000000 0.000000 10.000000 
R_rear_hand02 0.000000 0.000000 0.000000 0.000000 0.000000 0.000000 10.000000 
R_rear_hand03 0.000000 0.000000 0.000000 0.000000 0.000000 0.000000 10.000000 
Rope4_Seg01 0.000000 0.000000 0.000000 0.000000 0.000000 0.000000 10.000000 
Rope4_Seg02 0.000000 0.000000 0.000000 0.000000 0.000000 0.000000 10.000000 
Rope4_Seg03 0.000000 0.000000 0.000000 0.000000 0.000000 0.000000 10.000000 
Rope4_Seg04 0.000000 0.000000 0.000000 0.000000 0.000000 0.000000 10.000000 
Rope4_Seg05 0.000000 0.000000 0.000000 0.000000 0.000000 0.000000 10.000000 
Rope4_Seg06 0.000000 0.000000 0.000000 0.000000 0.000000 0.000000 10.000000 
Rope4_Seg07 0.000000 0.000000 0.000000 0.000000 0.000000 0.000000 10.000000 
Rope4_Seg08 0.000000 0.000000 0.000000 0.000000 0.000000 0.000000 10.000000 
Rope4_Seg09 0.000000 0.000000 0.000000 0.000000 0.000000 0.000000 10.000000 
L_rear_hand01 0.000000 0.000000 0.000000 0.000000 0.000000 0.000000 10.000000 
L_rear_hand02 0.000000 0.000000 0.000000 0.000000 0.000000 0.000000 10.000000 
L_rear_hand03 0.000000 0.000000 0.000000 0.000000 0.000000 0.000000 10.000000 
#Beginning of Data. Separated by tabs
#Fr	Tx	Ty	Tz	Rx	Ry	Rz	SF
[MASTER]
26 -117.729416 2292.212891 261.788971 0.001660 0.001660 0.001660 2310.115479
27 -115.822845 2309.517090 146.245209 0.001660 0.001660 0.001660 2317.039551
[root]
26 2.696667 444.669037 1160.622681 -94.692986 -36.951027 -87.742180 1242.892944
27 2.696662 444.669037 1191.177368 -93.616394 -36.803059 -88.476120 1271.472046
[chest]
26 -84.512650 -34.090519 0.000000 -11.384896 -27.000546 147.950867 91.129311
27 -84.512650 -34.090519 0.000000 -11.509291 -26.745054 147.251114 91.129311
[L_mid_tent01]
26 27.299166 22.179010 -249.918701 -0.242066 20.114882 78.878372 252.381683
27 27.299168 22.179008 -249.918701 -0.160262 22.398882 77.273643 252.381683
[R_mid_tent01]
26 23.228794 24.509907 226.238495 126.375443 -43.309093 67.469490 228.744751
27 23.228794 24.509907 226.238495 130.293945 -43.039749 66.111450 228.744751
[spine01]
26 -0.361383 -0.195265 0.000000 -0.000001 -0.000007 22.052340 0.410763
27 -0.361383 -0.195265 0.000000 -0.000001 -0.000007 22.052340 0.410763
[Bip01_Neck]
26 165.484543 71.581718 0.000119 176.643677 -1.657967 43.431911 180.302734
27 165.484543 71.581718 0.000119 176.643677 -1.657967 43.431911 180.302734
[L_humerus]
26 -13.983130 -135.272980 -120.471481 172.179993 1.425491 -89.778122 181.680161
27 -13.983130 -135.272980 -120.471481 171.938751 10.606582 -91.184319 181.680161
[R_humerus]
26 -13.983309 -135.273102 125.287651 -177.014343 2.678884 -85.399712 184.909012
27 -13.983309 -135.273102 125.287651 -176.869705 -6.827948 -86.055847 184.909012
[weapon_bone]
26 235.964890 -300.705902 0.000000 0.000000 -89.951546 -128.212341 382.234833
27 235.964890 -300.705902 0.000000 0.000000 -89.951546 -128.212341 382.234833
[Bip01_Head]
26 213.423935 185.744858 11.000201 35.838024 14.913117 -43.225376 283.146484
27 213.434143 185.719757 11.373823 34.348907 14.456999 -43.604473 283.152496
[eye_left_bone]
26 -24.626970 125.451866 -64.772606 0.000000 -90.000000 -99.840431 143.318359
27 -24.626970 125.451866 -64.772606 0.000000 -90.000000 -99.840431 143.318359
[eye_right_bone]
26 -24.626970 125.451866 64.327362 0.000000 -89.965736 80.156380 143.117676
27 -24.626970 125.451866 64.327362 0.000000 -89.965736 80.156380 143.117676
[L_forearm]
26 322.776093 0.000000 -0.000119 0.000283 -0.002330 -103.844337 322.776093
27 322.776093 0.000000 -0.000119 0.000262 -0.002333 -102.797638 322.776093
[L_front_hand]
26 241.149185 -0.042021 -3.300071 135.958466 -1.835206 -27.421667 241.171753
27 241.149185 -0.042021 -3.300071 108.935295 -1.835379 -27.421946 241.171753
[L_weapon_bone]
26 156.183838 0.000000 0.000000 0.000014 0.000007 0.000001 156.183838
27 156.183838 0.000000 0.000000 0.000014 0.000007 0.000001 156.183838
[L_front_hand01_01]
26 86.095154 20.947098 -0.655860 0.405584 -0.442307 -4.620365 88.609184
27 86.095154 20.947098 -0.655860 0.298027 -0.519562 7.880116 88.609184
[L_front_hand02_01]
26 86.935165 -11.437475 24.513514 116.959465 3.630707 1.495396 91.046425
27 86.935165 -11.437475 24.513514 117.152168 -7.511168 -4.182455 91.046425
[L_front_hand03_01]
26 86.637497 -14.123976 -20.424902 -118.419891 -4.660446 -0.155129 90.126129
27 86.637497 -14.123976 -20.424902 -118.509918 6.338694 -6.104538 90.126129
[L_front_hand01_02]
26 71.020905 -0.000179 0.000030 0.001534 0.001777 -8.379023 71.020905
27 71.020905 -0.000179 0.000030 0.001534 0.001777 -8.378850 71.020905
[L_front_hand02_02]
26 71.020927 -0.000119 0.000060 0.001534 0.001777 -8.379023 71.020927
27 71.020927 -0.000119 0.000060 0.001534 0.001777 -8.378850 71.020927
[L_front_hand03_02]
26 71.020905 -0.000060 0.000060 0.001534 0.001777 -8.379023 71.020905
27 71.020905 -0.000060 0.000060 0.001534 0.001777 -8.378850 71.020905
[R_forearm]
26 322.776428 -0.000060 0.000030 0.209534 0.045736 -102.778397 322.776428
27 322.776428 -0.000060 0.000030 0.206836 0.039913 -101.691986 322.776428
[R_front_hand]
26 238.847015 -0.006795 2.210259 -148.459320 -10.645370 -26.313663 238.857239
27 238.847015 -0.006795 2.210259 -110.180199 -10.645726 -26.313110 238.857239
[R_weapon_bone]
26 155.664093 0.002503 -0.000030 0.003487 0.001180 -90.988930 155.664078
27 155.664093 0.002503 -0.000030 0.003487 0.001180 -90.988930 155.664078
[R_front_hand01_01]
26 87.624611 14.231146 22.918642 -116.960205 3.496555 -1.324077 91.683487
27 87.624611 14.231146 22.918642 -117.163483 -7.643627 4.362266 91.683487
[R_front_hand02_01]
26 89.356956 14.367283 -19.491137 118.419647 -4.256969 0.609892 92.579636
27 89.356956 14.367283 -19.491137 118.548958 6.742043 6.564324 92.579636
[R_front_hand03_01]
26 87.286232 -22.307278 -0.143439 -0.387969 -0.231463 4.231865 90.091743
27 87.286232 -22.307278 -0.143439 -0.328018 -0.309644 -8.268888 90.091743
[R_front_hand01_02]
26 71.020905 0.000060 0.000119 0.001777 0.001534 8.377397 71.020905
27 71.020905 0.000060 0.000119 0.001778 0.001532 8.496235 71.020905
[R_front_hand02_02]
26 71.020844 -0.000030 -0.000119 0.001777 0.001534 8.377397 71.020836
27 71.020844 -0.000030 -0.000119 0.001778 0.001532 8.496235 71.020836
[R_front_hand03_02]
26 71.020905 0.000000 0.000030 0.001777 0.001534 8.377397 71.020905
27 71.020905 0.000000 0.000030 0.001778 0.001532 8.496235 71.020905
[null_rope01_connect]
26 328.732483 0.000000 -0.000238 -138.174469 -66.813263 -173.299149 328.732483
27 328.732483 0.000000 -0.000238 -134.703430 -65.159119 -175.405701 328.732483
[Rope1_Seg01]
26 0.000000 0.000000 0.000000 -17.110184 6.292890 152.873459 0.000000
27 0.000000 0.000000 0.000000 -20.539457 25.349285 146.734741 0.000000
[Rope1_Seg02]
26 139.999863 -0.000179 0.000000 3.342111 0.120936 26.971497 139.999863
27 139.999863 -0.000179 0.000000 -1.069469 -1.472048 26.023264 139.999863
[Rope1_Seg03]
26 139.999924 0.000060 -0.000060 16.049192 1.598150 32.885559 139.999924
27 139.999924 0.000060 -0.000060 7.215955 -4.424884 34.003723 139.999924
[Rope1_Seg04]
26 139.999924 -0.000060 -0.000119 16.103373 5.357275 16.354040 139.999924
27 139.999924 -0.000060 -0.000119 12.321462 0.081219 18.571455 139.999924
[Rope1_Seg05]
26 139.999832 0.000119 -0.000060 18.023880 9.522928 12.409645 139.999832
27 139.999832 0.000119 -0.000060 19.527531 10.274265 13.027137 139.999832
[Rope1_Seg06]
26 139.999954 0.000119 -0.000060 23.984081 19.511829 13.628932 139.999954
27 139.999954 0.000119 -0.000060 21.995188 21.745285 10.760774 139.999954
[Rope1_Seg07]
26 139.999985 0.000060 0.000000 9.710638 15.206100 3.549315 139.999985
27 139.999985 0.000060 0.000000 7.874064 14.233517 2.634942 139.999985
[Rope1_Seg09]
26 121.602913 0.000119 -0.000089 -89.793175 -1.359789 0.847147 121.602913
27 121.602913 0.000119 -0.000089 -89.793175 -1.359789 0.847147 121.602913
[L_mid_hand01]
26 103.859421 1.038730 8.195221 130.544342 -67.584518 -38.866936 104.187431
27 103.859421 1.038730 8.195221 130.544403 -67.584549 -38.866966 104.187431
[L_mid_hand02]
26 105.572853 -4.139662 -10.864139 -168.923172 43.409309 -73.498886 106.211075
27 105.572853 -4.139662 -10.864139 -168.923172 43.409309 -73.498886 106.211075
[L_mid_hand03]
26 104.641464 17.579376 -3.913581 -6.012624 17.808174 74.893669 106.179977
27 104.641464 17.579376 -3.913581 -6.012627 17.808178 74.893677 106.179977
[null_rope02_connect]
26 328.732849 0.000179 -0.000119 -55.668770 23.966616 44.287891 328.732849
27 328.732849 0.000179 -0.000119 -57.850773 27.246767 42.413956 328.732849
[Rope2_Seg01]
26 0.000062 0.000057 0.000000 70.761551 -9.714869 -32.225735 0.000084
27 0.000063 0.000053 0.000000 4.129312 2.626518 -50.695866 0.000083
[Rope2_Seg02]
26 139.999741 -0.000060 -0.000119 -43.984570 1.724896 -31.695927 139.999756
27 139.999741 -0.000060 -0.000119 11.098466 18.941471 0.715238 139.999756
[Rope2_Seg03]
26 140.000107 0.000030 0.000000 -6.751158 11.767901 -12.875065 140.000107
27 140.000107 0.000030 0.000000 0.001915 13.100338 -5.202121 140.000107
[Rope2_Seg04]
26 139.999802 0.000000 -0.000060 1.331670 2.705604 1.012698 139.999802
27 139.999802 0.000000 -0.000060 2.077109 6.088498 0.840311 139.999802
[Rope2_Seg05]
26 139.999985 -0.000060 0.000119 6.888000 -0.563388 11.173287 139.999985
27 139.999985 -0.000060 0.000119 7.708447 5.067057 11.634563 139.999985
[Rope2_Seg06]
26 139.999893 -0.000030 -0.000119 10.904491 3.764288 13.467842 139.999893
27 139.999893 -0.000030 -0.000119 10.749591 10.477813 15.796384 139.999893
[Rope2_Seg07]
26 139.999893 0.000060 -0.000060 7.850628 4.605373 9.083063 139.999893
27 139.999893 0.000060 -0.000060 7.106814 12.317015 11.880967 139.999893
[Rope2_Seg09]
26 121.338966 0.000089 -0.000060 33.793236 -1.359788 -0.847141 121.338966
27 121.338966 0.000089 -0.000060 33.793236 -1.359788 -0.847141 121.338966
[R_mid_hand01]
26 104.680779 11.144459 -10.335981 -16.857143 45.048347 69.553436 105.778534
27 104.680779 11.144459 -10.335981 -16.212063 45.237240 70.462845 105.778534
[R_mid_hand02]
26 104.070427 2.443552 8.231699 50.118168 -67.241341 38.150017 104.424065
27 104.070427 2.443552 8.231699 49.067383 -67.749779 39.286449 104.424065
[R_mid_hand03]
26 106.028137 -11.221827 -5.996406 -176.912491 15.518668 -75.892738 106.788818
27 106.028137 -11.221827 -5.996406 -177.101105 15.551026 -76.585571 106.788818
[spine02]
26 129.756927 0.001550 0.000119 0.463240 -4.033420 -14.447600 129.756927
27 129.756927 0.001550 0.000119 0.453442 -4.034584 -14.308815 129.756927
[spine03]
26 78.613960 0.081577 -4.899006 1.958531 3.801418 17.431726 78.766495
27 78.613953 0.081581 -4.899006 1.952898 3.804061 17.342920 78.766495
[pelvis]
26 169.435242 0.051022 0.000000 -0.067588 -0.178602 16.027838 169.435257
27 169.435242 0.051022 0.000000 -0.066491 -0.178823 15.847282 169.435257
[null_rope03_connect]
26 -1.257226 -2.466202 137.391083 178.930115 -87.328781 -92.972435 137.418976
27 -1.257226 -2.466202 137.391083 -178.775726 -88.176727 -95.310722 137.418976
[null_rope04_connect]
26 -1.259640 -2.480268 -137.844437 178.930115 -87.328781 -92.972435 137.872513
27 -1.259640 -2.480268 -137.844437 -178.775726 -88.176727 -95.310722 137.872513
[Rope3_Seg01]
26 -0.000031 -0.000205 0.000000 15.501128 -38.885769 -69.495949 0.000207
27 -0.000031 -0.000212 0.000000 17.065464 -31.367750 -73.261414 0.000214
[Rope3_Seg02]
26 139.999924 -0.000119 0.000060 -1.630595 -8.401881 17.973429 139.999924
27 139.999924 -0.000119 0.000060 -0.945087 -7.332444 15.922462 139.999924
[Rope3_Seg03]
26 139.999924 -0.000119 0.000119 -4.480062 -7.770754 17.615791 139.999924
27 139.999924 -0.000119 0.000119 -2.569126 -5.090380 14.424180 139.999924
[Rope3_Seg04]
26 139.999924 0.000119 0.000000 -5.757476 -7.619629 13.061605 139.999924
27 139.999924 0.000119 0.000000 -5.099228 -7.771372 13.102019 139.999924
[Rope3_Seg05]
26 139.999924 -0.000238 0.000060 -4.915383 -7.283133 7.844790 139.999924
27 139.999924 -0.000238 0.000060 -5.769127 -10.350911 9.064811 139.999924
[Rope3_Seg06]
26 139.999893 -0.000119 -0.000060 -2.785911 -4.726943 4.519517 139.999893
27 139.999893 -0.000119 -0.000060 -2.473218 -5.522231 4.257268 139.999893
[Rope3_Seg07]
26 139.999771 0.000060 -0.000119 -1.675916 -3.255867 2.949260 139.999771
27 139.999771 0.000060 -0.000119 -1.222133 -3.380144 2.561469 139.999771
[Rope3_Seg08]
26 139.999985 -0.000060 0.000000 -0.821550 -2.058360 1.762646 139.999985
27 139.999985 -0.000060 0.000000 -0.490064 -2.054622 1.489504 139.999985
[Rope3_Seg09]
26 90.185997 -0.000179 -0.000060 89.793228 -1.359877 -0.847183 90.185997
27 90.185997 -0.000179 -0.000060 89.793228 -1.359877 -0.847183 90.185997
[R_rear_hand01]
26 103.366196 -6.073594 -10.757982 -177.431519 24.540596 -73.234825 104.101845
27 103.366196 -6.073594 -10.757982 -177.714203 24.565960 -73.910950 104.101845
[R_rear_hand02]
26 100.509819 12.039542 -7.992327 -13.326718 36.728542 71.413696 101.543350
27 100.509819 12.039542 -7.992327 -12.874833 36.868488 72.167213 101.543350
[R_rear_hand03]
26 101.539970 5.215704 5.435467 72.062210 -71.230415 20.902845 101.819031
27 101.539970 5.215704 5.435467 71.484619 -71.816628 21.513792 101.819031
[Rope4_Seg01]
26 0.000010 0.000038 -0.000114 -14.745279 -59.277832 157.530243 0.000121
27 0.000010 0.000038 -0.000114 -15.618744 -51.854275 158.796066 0.000121
[Rope4_Seg02]
26 139.999985 0.000060 0.000119 -1.987009 4.171172 9.890744 139.999985
27 139.999985 0.000060 0.000119 -3.961613 5.350380 12.240766 139.999985
[Rope4_Seg03]
26 139.999924 0.000000 -0.000238 -4.731956 4.990582 13.527640 139.999924
27 139.999924 0.000000 -0.000238 -9.981400 3.963194 16.852684 139.999924
[Rope4_Seg04]
26 139.999985 0.000000 0.000119 -13.708056 -5.634666 19.480810 139.999985
27 139.999985 0.000000 0.000119 -19.087704 -9.558615 19.768637 139.999985
[Rope4_Seg05]
26 139.999802 -0.000060 -0.000119 -7.630544 1.787274 12.519372 139.999802
27 139.999802 -0.000060 -0.000119 -6.314704 8.542174 11.776587 139.999802
[Rope4_Seg06]
26 139.999924 0.000000 0.000060 -7.484787 31.334490 21.509346 139.999924
27 139.999924 0.000000 0.000060 -141.733765 39.943909 27.182014 139.999924
[Rope4_Seg07]
26 139.999802 0.000000 0.000000 -145.483765 25.304337 24.488518 139.999802
27 139.999802 0.000000 0.000000 -17.456356 -24.565407 -0.807485 139.999802
[Rope4_Seg08]
26 139.999924 0.000000 0.000119 -2.872028 -9.293566 -3.185233 139.999924
27 139.999924 0.000000 0.000119 -1.376320 -6.996294 -3.081023 139.999924
[Rope4_Seg09]
26 90.185791 0.000060 0.000060 -135.617828 2.228885 0.850567 90.185791
27 90.185791 0.000060 0.000060 -135.617828 2.228885 0.850567 90.185791
[L_rear_hand01]
26 101.696655 -8.392275 -7.654577 -12.874829 -36.868488 107.832764 102.329041
27 101.696655 -8.392275 -7.654577 -12.874829 -36.868488 107.832764 102.329041
[L_rear_hand02]
26 102.726799 -1.568258 5.773216 71.484581 71.816628 158.486160 102.900848
27 102.726799 -1.568258 5.773216 71.484627 71.816643 158.486160 102.900848
[L_rear_hand03]
26 104.552910 9.721220 -10.420293 -177.714203 -24.565960 -106.089035 105.519653
27 104.552910 9.721220 -10.420293 -177.714203 -24.565960 -106.089035 105.519653
